<?xml version="1.0" encoding="utf-8"?>
<!-- Generator: Adobe Illustrator 25.1.0, SVG Export Plug-In . SVG Version: 6.00 Build 0)  -->
<svg version="1.1" id="Calque_1" xmlns="http://www.w3.org/2000/svg" xmlns:xlink="http://www.w3.org/1999/xlink" x="0px" y="0px"
	 viewBox="0 0 128 64" style="enable-background:new 0 0 128 64;" xml:space="preserve">
<style type="text/css">
	.st0{fill:#FE8E25;}
	.st1{fill:#282D3E;}
</style>
<g>
	<path class="st0" d="M104.7,7.5l-5.8,10c-0.2,0.3-0.5,0.5-0.9,0.5h-5.8c-0.4,0-0.7-0.2-0.9-0.5l-5.8-10c-0.4-0.7-1.3-0.7-1.7,0
		l-4,7c-0.4,0.7-1.3,0.7-1.7,0l-2.3-4C75.6,10.2,75.3,10,75,10h-60c-0.8,0-1.2,0.8-0.9,1.5l11.6,20c0.2,0.3,0.2,0.7,0,1l-11.5,20
		C13.7,53.2,14.2,54,15,54h27.7c0.4,0,0.7-0.2,0.9-0.5l2.3-4c0.4-0.7,1.3-0.7,1.7,0l2.3,4c0.2,0.3,0.5,0.5,0.9,0.5H75
		c0.4,0,0.7-0.2,0.9-0.5l5.2-9c0.2-0.3,0.5-0.5,0.9-0.5l0,0c0.8,0,1.2,0.8,0.9,1.5l-4,7c-0.4,0.7,0.1,1.5,0.9,1.5h16.2
		c0.4,0,0.7-0.2,0.9-0.5l17.8-31c0.2-0.3,0.2-0.7,0-1l-8.1-14C106.1,6.8,105.1,6.8,104.7,7.5z M94.6,52H83.1c-0.8,0-1.2-0.8-0.9-1.5
		l4-7c0.4-0.7-0.1-1.5-0.9-1.5h-4.6c-0.4,0-0.7,0.2-0.9,0.5l-5.2,9c-0.2,0.3-0.5,0.5-0.9,0.5H51.9c-0.4,0-0.7-0.2-0.9-0.5l-3.5-6
		c-0.4-0.7-1.3-0.7-1.7,0l-3.5,6c-0.2,0.3-0.5,0.5-0.9,0.5H18.4c-0.8,0-1.2-0.8-0.9-1.5l10.4-18c0.2-0.3,0.2-0.7,0-1l-10.4-18
		c-0.4-0.7,0.1-1.5,0.9-1.5h55.4c0.4,0,0.7,0.2,0.9,0.5l3.5,6c0.4,0.7,1.3,0.7,1.7,0l4-7c0.4-0.7,1.3-0.7,1.7,0l4.6,8
		c0.2,0.3,0.5,0.5,0.9,0.5h8.1c0.4,0,0.7-0.2,0.9-0.5l4.6-8c0.4-0.7,1.3-0.7,1.7,0l5.8,10c0.2,0.3,0.2,0.7,0,1l-16.7,29
		C95.3,51.8,95,52,94.6,52z"/>
	<path class="st1" d="M109.9,22.5l-15.6,27c-0.2,0.3-0.5,0.5-0.9,0.5h-6.9c-0.8,0-1.2-0.8-0.9-1.5l4.6-8c0.2-0.3,0.2-0.7,0-1l-4.6-8
		c-0.4-0.7-1.3-0.7-1.7,0l-10.3,18c-0.2,0.3-0.5,0.5-0.9,0.5H53.1c-0.4,0-0.7-0.2-0.9-0.5l-9.9-17c-0.2-0.3-0.2-0.7,0-1l9.8-17
		c0.2-0.3,0.5-0.5,0.9-0.5h19.6c0.4,0,0.7,0.2,0.9,0.5l3.5,6c0.4,0.7-0.1,1.5-0.9,1.5H57.7c-0.4,0-0.7,0.2-0.9,0.5l-5.2,9
		c-0.2,0.3-0.2,0.7,0,1l5.2,9c0.2,0.3,0.5,0.5,0.9,0.5h10.4c0.4,0,0.7-0.2,0.9-0.5l2.3-4c0.4-0.7-0.1-1.5-0.9-1.5h-9.2
		c-0.4,0-0.7-0.2-0.9-0.5l-1.7-3c-0.2-0.3-0.2-0.7,0-1l1.7-3c0.2-0.3,0.5-0.5,0.9-0.5h15c0.4,0,0.7-0.2,0.9-0.5l6.9-12
		c0.4-0.7,1.3-0.7,1.7,0l8.7,15c0.4,0.7,1.3,0.7,1.7,0l8.7-15c0.4-0.7,1.3-0.7,1.7,0l3.5,6C110.1,21.8,110.1,22.2,109.9,22.5z"/>
	<path class="st1" d="M49.3,15.5l-3.5,6C45.6,21.8,45.3,22,45,22h-9.2c-0.8,0-1.2,0.8-0.9,1.5L45.5,42h0l-4.3,7.5
		c-0.2,0.3-0.5,0.5-0.9,0.5H21.9c-0.8,0-1.2-0.8-0.9-1.5l3.5-6c0.2-0.3,0.5-0.5,0.9-0.5h9.2c0.8,0,1.2-0.8,0.9-1.5L21,15.5
		c-0.4-0.7,0.1-1.5,0.9-1.5h26.5C49.2,14,49.7,14.8,49.3,15.5z"/>
</g>
</svg>
